<svg width="316" height="316" viewBox="0 0 316 316" fill="none" xmlns="http://www.w3.org/2000/svg">
<mask id="mask0_1_83" style="mask-type:luminance" maskUnits="userSpaceOnUse" x="0" y="0" width="316" height="316">
<path d="M316 0H0V316H316V0Z" fill="white"/>
</mask>
<g mask="url(#mask0_1_83)">
<path d="M282.055 220.8C268.135 239.631 246.819 252.195 222.766 254.029C222.017 254.081 221.268 254.134 220.509 254.176C192.306 255.58 171.001 242.712 156.874 230.766C131.875 217.532 112.315 214.199 100.871 211.317C92.5487 209.221 85.2664 205.03 82.1454 202.934C79.3782 201.289 73.8124 197.474 69.6615 190.359C65.0112 182.385 64.7408 174.766 64.8136 171.528C67.2375 171.204 70.3689 170.847 74.0309 170.617C77.027 170.428 79.9295 170.355 83.1858 170.344C108.445 170.313 128.034 171.549 142.287 177.879C149.996 181.295 157.143 185.843 163.509 191.386C171.697 198.533 188.436 209.829 209.065 205.973C211.687 205.48 214.205 204.83 216.629 204.034C224.056 202.965 236.759 202.106 251.719 206.077C265.919 209.85 276.135 216.368 282.055 220.8Z" fill="#0A60B5" stroke="black" stroke-width="8" stroke-miterlimit="10"/>
<path d="M280.203 91.1167C273.928 82.9863 266.3 75.3004 257.292 70.056C247.692 64.4702 235.442 59.6602 220.627 58.3568C184.429 55.1708 159.68 75.2487 155.171 79.045C149.561 84.3101 127.119 102.94 100.105 113.284C95.3986 114.96 86.3387 118.921 78.2866 127.766C71.9177 134.758 68.8007 141.916 67.2734 146.364C70.4943 146.809 73.819 147.13 77.2476 147.326C103.44 148.785 125.945 148.93 140.667 141.72C150.392 136.962 158.922 130.186 166.278 122.252C179.535 107.946 198.87 101.564 216.471 105.94C224.554 107.067 238.632 107.926 254.913 102.94C266.155 99.4953 274.53 95.1613 280.203 91.1167Z" fill="#0A60B5" stroke="black" stroke-width="8" stroke-miterlimit="10"/>
<path d="M34.5625 97.1538C24.5208 91.9925 16.6818 86.0387 11.3352 81.3778C8.34651 78.7711 3.70312 80.9086 3.70312 84.8917V117.455C3.70312 118.873 4.34431 120.218 5.44053 121.094L18.7812 133.93C19.4844 128.768 20.9943 121.751 24.3864 113.993C27.5819 106.674 31.4186 101.074 34.5625 97.1538Z" fill="#0A60B5" stroke="black" stroke-width="8" stroke-miterlimit="10"/>
<path d="M249.344 169.823C250.87 165.12 251.717 160.186 251.843 155.158C251.947 151.186 251.487 149.702 250.797 145.856C257.896 144.664 266.762 142.72 274.844 140.629C283.386 138.424 289.701 135.863 296.8 133.312C297.835 138.277 298.922 140.692 299.299 144.371C299.654 147.842 299.874 151.437 299.936 155.158C300.125 166.719 298.713 177.203 296.538 186.391C289.847 182.92 281.901 179.325 272.753 176.168C264.242 173.22 256.328 171.214 249.344 169.823Z" fill="#0A60B5" stroke="black" stroke-width="8" stroke-miterlimit="10"/>
<path d="M11.025 238.578C7.9639 240.801 3.70312 238.61 3.70312 234.801V194.808C3.70312 193.597 4.1685 192.45 4.97514 191.594C5.37847 191.166 5.75076 190.926 5.91623 190.832L19.1328 185.156C20.1049 190.457 21.7079 196.801 24.3864 203.708C27.5199 211.784 31.2428 218.326 34.5625 223.303C26.7132 228.395 18.8639 233.487 11.025 238.578Z" fill="#0A60B5" stroke="black" stroke-width="8" stroke-miterlimit="10"/>
<path fill-rule="evenodd" clip-rule="evenodd" d="M96.136 63.8498C122.57 62.5386 142.337 73.6102 152.526 81.0098C144.813 87.8226 123.941 104.262 99.255 113.757C97.59 114.353 95.3808 115.235 92.864 116.52C75.0008 125.318 64.3788 142.852 63.9047 161.584C63.825 164.737 63.9859 167.878 64.4028 170.965C64.3577 170.971 64.3128 170.977 64.2682 170.983C64.1954 174.195 64.4658 181.754 69.1133 189.667C73.2619 196.726 78.8244 200.511 81.5901 202.143C82.9625 203.058 85.1402 204.376 87.8573 205.742C91.049 207.442 94.5882 208.868 98.492 209.971C99.09 210.145 99.695 210.309 100.305 210.461C101.726 210.816 103.274 211.184 104.944 211.58C116.722 214.376 134.569 218.611 156.45 230.112C158.661 231.967 161.042 233.837 163.596 235.664C162.82 236.359 162.167 236.965 161.639 237.463C157.127 241.279 132.36 261.46 96.136 258.258C81.3098 256.948 69.041 252.113 59.4443 246.499C43.2765 237.048 31.0597 222.096 24.3951 204.598C20.101 193.317 16.358 178.729 16.0877 161.563C15.8485 146.903 18.1983 133.99 21.4007 123.281C31.2053 90.5604 59.7978 66.5635 93.8801 63.9954L93.8816 63.9953C94.6297 63.9433 95.3778 63.8914 96.136 63.8498ZM281.278 219.795C275.345 215.399 265.166 208.981 251.066 205.263C236.114 201.322 223.419 202.175 215.996 203.235C213.573 204.025 211.057 204.67 208.437 205.159C187.819 208.985 171.09 197.777 162.907 190.686C161.316 189.31 159.676 187.997 157.991 186.747C163.498 181.907 169.553 177.731 176.154 174.487C190.887 167.251 213.407 167.396 239.619 168.852C275.739 170.869 300.692 188.076 310.653 195.978C311.765 196.862 312.4 198.193 312.4 199.607V232.078C312.4 236.06 307.731 238.191 304.726 235.582C299.343 230.92 291.425 224.958 281.278 219.795ZM165.475 122.772C163.107 125.337 160.617 127.782 158.005 130.078C163.063 133.831 168.53 137.008 174.313 139.552C188.558 145.832 208.136 147.059 233.38 147.028C270.405 146.976 297.667 133.033 310.175 125.443C311.557 124.601 312.4 123.104 312.4 121.482V81.6292C312.4 77.8342 308.116 75.6507 305.038 77.8653C297.753 83.1089 286.919 89.8015 272.948 95.0659C267.916 98.0318 261.646 101.06 254.175 103.36C237.882 108.371 223.794 107.508 215.705 106.375C198.092 101.977 178.742 108.392 165.475 122.772Z" fill="#E11312"/>
<path d="M152.526 81.0098L155.174 84.0078L158.913 80.705L154.876 77.7733L152.526 81.0098ZM96.136 63.8498L95.9381 59.8547L95.9278 59.8552L95.9174 59.8558L96.136 63.8498ZM99.255 113.757L100.602 117.524L100.647 117.508L100.691 117.491L99.255 113.757ZM92.864 116.52L94.6313 120.108L94.6572 120.096L94.6829 120.083L92.864 116.52ZM64.4028 170.965L64.9266 174.93L68.9038 174.405L68.3668 170.429L64.4028 170.965ZM64.2682 170.983L63.7409 167.018L60.3468 167.469L60.2692 170.892L64.2682 170.983ZM81.5901 202.143L83.8089 198.815L83.7177 198.754L83.6232 198.699L81.5901 202.143ZM87.8573 205.742L89.7381 202.212L89.6963 202.189L89.6539 202.168L87.8573 205.742ZM98.492 209.971L99.605 206.13L99.593 206.126L99.58 206.122L98.492 209.971ZM156.45 230.112L159.022 227.048L158.693 226.772L158.311 226.571L156.45 230.112ZM163.596 235.664L166.263 238.645L169.982 235.317L165.924 232.412L163.596 235.664ZM161.639 237.463L164.222 240.518L164.306 240.447L164.385 240.372L161.639 237.463ZM59.4443 246.499L61.4642 243.046L61.463 243.045L59.4443 246.499ZM16.0877 161.563L20.0872 161.5L20.0871 161.498L16.0877 161.563ZM21.4007 123.281L17.569 122.132L17.5683 122.135L21.4007 123.281ZM93.8801 63.9954L93.612 60.0044L93.5958 60.0055L93.5795 60.0067L93.8801 63.9954ZM93.8816 63.9953L94.1497 67.9863L94.1587 67.9857L93.8816 63.9953ZM251.066 205.263L252.086 201.395H252.085L251.066 205.263ZM281.278 219.795L278.897 223.009L279.166 223.208L279.464 223.36L281.278 219.795ZM215.996 203.235L215.43 199.275L215.086 199.324L214.755 199.432L215.996 203.235ZM208.437 205.159L209.167 209.091H209.17L208.437 205.159ZM162.907 190.686L165.527 187.663L165.523 187.659L162.907 190.686ZM157.991 186.747L155.351 183.743L151.632 187.011L155.609 189.96L157.991 186.747ZM239.619 168.852L239.842 164.858H239.84L239.619 168.852ZM310.653 195.978L313.141 192.846L313.139 192.845L310.653 195.978ZM304.726 235.582L307.349 232.562L307.345 232.558L304.726 235.582ZM158.005 130.078L155.364 127.074L151.646 130.341L155.622 133.291L158.005 130.078ZM174.313 139.552L175.927 135.892L175.924 135.891L174.313 139.552ZM233.38 147.028L233.385 151.028H233.386L233.38 147.028ZM310.175 125.443L312.25 128.863L312.255 128.86L310.175 125.443ZM272.948 95.0659L271.537 91.3228L271.214 91.4446L270.917 91.62L272.948 95.0659ZM215.705 106.375L214.736 110.256L214.94 110.307L215.15 110.336L215.705 106.375ZM154.876 77.7733C144.278 70.0762 123.619 58.4816 95.9381 59.8547L96.334 67.8449C121.521 66.5955 140.396 77.1443 150.175 84.2463L154.876 77.7733ZM100.691 117.491C126.003 107.755 147.286 90.9747 155.174 84.0078L149.878 78.0118C142.339 84.6705 121.879 100.77 97.819 110.024L100.691 117.491ZM94.6829 120.083C97.016 118.891 99.062 118.074 100.602 117.524L97.908 109.991C96.118 110.631 93.7455 111.579 91.045 112.958L94.6829 120.083ZM67.9034 161.685C68.3408 144.407 78.1324 128.235 94.6313 120.108L91.0966 112.932C71.8692 122.402 60.4169 141.298 59.906 161.483L67.9034 161.685ZM68.3668 170.429C67.9798 167.564 67.8289 164.636 67.9034 161.685L59.906 161.483C59.8212 164.838 59.9921 168.193 60.4388 171.5L68.3668 170.429ZM64.7955 174.948C64.8392 174.942 64.8828 174.936 64.9266 174.93L63.879 166.999C63.8326 167.005 63.7865 167.012 63.7409 167.018L64.7955 174.948ZM72.5624 187.641C68.4455 180.632 68.2026 173.922 68.2672 171.073L60.2692 170.892C60.1882 174.469 60.486 182.877 65.6643 191.693L72.5624 187.641ZM83.6232 198.699C81.1664 197.249 76.2345 193.89 72.562 187.64L65.6643 191.693C70.2888 199.563 76.4824 203.773 79.5569 205.588L83.6232 198.699ZM89.6539 202.168C87.0837 200.876 85.0469 199.641 83.8089 198.815L79.3713 205.472C80.8781 206.476 83.1967 207.876 86.0608 209.316L89.6539 202.168ZM99.58 206.122C95.9363 205.092 92.6645 203.771 89.7381 202.212L85.9766 209.272C89.4335 211.114 93.24 212.644 97.404 213.821L99.58 206.122ZM101.275 206.581C100.715 206.441 100.158 206.29 99.605 206.13L97.378 213.813C98.022 214 98.674 214.177 99.335 214.342L101.275 206.581ZM105.868 207.688C104.192 207.29 102.668 206.929 101.275 206.581L99.335 214.342C100.783 214.704 102.356 215.077 104.02 215.472L105.868 207.688ZM158.311 226.571C135.969 214.828 117.721 210.501 105.868 207.688L104.02 215.472C115.724 218.25 133.168 222.394 154.589 233.653L158.311 226.571ZM165.924 232.412C163.463 230.65 161.162 228.845 159.022 227.048L153.879 233.176C156.159 235.09 158.622 237.023 161.267 238.917L165.924 232.412ZM164.385 240.372C164.893 239.893 165.519 239.311 166.263 238.645L160.928 232.684C160.121 233.406 159.441 234.038 158.893 234.555L164.385 240.372ZM95.784 262.242C133.658 265.591 159.494 244.516 164.222 240.518L159.056 234.409C154.759 238.043 131.063 257.33 96.489 254.274L95.784 262.242ZM57.4244 249.951C67.4424 255.812 80.2751 260.872 95.7842 262.243L96.489 254.274C82.3455 253.024 70.6395 248.414 61.4642 243.046L57.4244 249.951ZM20.6568 206.021C27.6274 224.323 40.4253 240.014 57.4256 249.952L61.463 243.045C46.1277 234.081 34.4919 219.869 28.1331 203.174L20.6568 206.021ZM12.0882 161.626C12.3671 179.342 16.2303 194.392 20.6568 206.021L28.1334 203.175C23.9717 192.241 20.3488 178.116 20.0872 161.5L12.0882 161.626ZM17.5683 122.135C14.2669 133.175 11.8414 146.499 12.0882 161.629L20.0871 161.498C19.8557 147.307 22.1297 134.804 25.233 124.427L17.5683 122.135ZM93.5795 60.0067C57.7704 62.7049 27.827 87.8992 17.569 122.132L25.2323 124.429C34.5836 93.2216 61.8252 70.4221 94.1806 67.9841L93.5795 60.0067ZM93.6135 60.0043L93.612 60.0044L94.1481 67.9864L94.1497 67.9863L93.6135 60.0043ZM95.9174 59.8558C95.125 59.8992 94.348 59.9533 93.6045 60.0049L94.1587 67.9857C94.9114 67.9334 95.6305 67.8835 96.355 67.8438L95.9174 59.8558ZM250.046 209.13C263.506 212.68 273.227 218.808 278.897 223.009L283.66 216.581C277.463 211.99 266.825 205.282 252.086 201.395L250.046 209.13ZM216.561 207.195C223.65 206.182 235.773 205.369 250.046 209.13L252.085 201.395C236.456 197.275 223.189 198.167 215.43 199.275L216.561 207.195ZM209.17 209.091C211.961 208.57 214.646 207.883 217.236 207.038L214.755 199.432C212.5 200.168 210.153 200.769 207.703 201.226L209.17 209.091ZM160.288 193.708C168.755 201.046 186.717 213.258 209.167 209.091L207.707 201.226C188.921 204.712 173.425 194.507 165.527 187.663L160.288 193.708ZM155.609 189.96C157.214 191.151 158.776 192.402 160.291 193.712L165.523 187.659C163.857 186.219 162.139 184.843 160.374 183.534L155.609 189.96ZM174.39 170.897C167.439 174.314 161.092 178.697 155.351 183.743L160.632 189.752C165.904 185.118 171.669 181.148 177.918 178.077L174.39 170.897ZM239.84 164.858C226.712 164.129 214.328 163.716 203.327 164.418C192.357 165.118 182.44 166.943 174.39 170.897L177.918 178.077C184.601 174.795 193.31 173.074 203.837 172.402C214.332 171.732 226.314 172.119 239.397 172.846L239.84 164.858ZM313.139 192.845C302.868 184.697 277.132 166.941 239.842 164.858L239.396 172.846C274.345 174.797 298.516 191.456 308.167 199.112L313.139 192.845ZM316.4 199.607C316.4 196.986 315.219 194.497 313.141 192.846L308.165 199.11C308.312 199.227 308.4 199.4 308.4 199.607H316.4ZM316.4 232.078V199.607H308.4V232.078H316.4ZM302.103 238.602C307.703 243.465 316.4 239.483 316.4 232.078H308.4C308.4 232.267 308.351 232.37 308.306 232.437C308.251 232.519 308.158 232.604 308.028 232.663C307.899 232.722 307.774 232.736 307.677 232.725C307.599 232.715 307.491 232.685 307.349 232.562L302.103 238.602ZM279.464 223.36C289.258 228.344 296.909 234.104 302.108 238.606L307.345 232.558C301.777 227.737 293.592 221.573 283.092 216.23L279.464 223.36ZM160.645 133.083C163.369 130.689 165.958 128.146 168.415 125.485L162.536 120.058C160.256 122.528 157.866 124.875 155.364 127.074L160.645 133.083ZM175.924 135.891C170.414 133.467 165.206 130.44 160.388 126.866L155.622 133.291C160.92 137.222 166.646 140.549 172.703 143.214L175.924 135.891ZM233.375 143.028C208.041 143.059 189.29 141.784 175.927 135.892L172.7 143.212C187.826 149.881 208.231 151.059 233.385 151.028L233.375 143.028ZM308.099 122.024C295.926 129.411 269.392 142.977 233.375 143.028L233.386 151.028C271.417 150.975 299.407 136.656 312.25 128.863L308.099 122.024ZM308.4 121.482C308.4 121.708 308.285 121.911 308.094 122.027L312.255 128.86C314.83 127.292 316.4 124.5 316.4 121.482H308.4ZM308.4 81.6292V121.482H316.4V81.6292H308.4ZM307.375 81.1121C307.819 80.7924 308.4 81.1097 308.4 81.6292H316.4C316.4 74.5586 308.413 70.509 302.702 74.6186L307.375 81.1121ZM274.358 98.809C288.734 93.3923 299.877 86.5085 307.375 81.1121L302.702 74.6186C295.628 79.7094 285.105 86.2107 271.537 91.3228L274.358 98.809ZM255.351 107.183C263.166 104.778 269.721 101.611 274.979 98.5119L270.917 91.62C266.11 94.4528 260.126 97.343 252.998 99.5368L255.351 107.183ZM215.15 110.336C223.591 111.519 238.314 112.424 255.351 107.183L252.999 99.5366C237.45 104.319 223.996 103.498 216.26 102.414L215.15 110.336ZM168.415 125.485C180.804 112.057 198.696 106.251 214.736 110.256L216.674 102.494C197.487 97.7032 176.681 104.728 162.535 120.059L168.415 125.485Z" fill="black"/>
</g>
</svg>
